<?xml version="1.0" encoding="UTF-8"?> <svg xmlns="http://www.w3.org/2000/svg" id="icons" height="512" viewBox="0 0 64 64" width="512"> <path d="m25.779 55.585c3.731-2.271 6.221-6.39 6.221-11.08 0 4.69 2.479 8.8 6.21 11.08 1.97 1.22 4.3 1.92 6.79 1.92h-9-8-9c2.489 0 4.81-.7 6.779-1.92z" fill="#e6e9ed"></path> <path d="m11 35.495v4.01h-.011c0 2.76-2.229 4.99-5 4.99-2.76 0-4.989-2.23-4.989-4.99v-4.01z" fill="#ffce54"></path> <path d="m20.97 46.505c-2.2-.02-3.97-1.8-3.97-4v-3h8v3h-.011c0 2.21-1.79 4-3.989 4-.011 0-.021 0-.03 0z" fill="#ffce54"></path> <path d="m28 57.505h8c0 2.21-1.801 4-4 4-2.211 0-4-1.79-4-4z" fill="#ccd1d9"></path> <path d="m39 39.505h8v3h-.011c0 2.2-1.77 3.99-3.97 4-.01 0-.01 0-.02 0-2.211 0-4-1.79-4-4v-3z" fill="#ffce54"></path> <path d="m63 35.495v4.01c0 2.76-2.24 4.99-5 4.99-2.761 0-5-2.23-5-4.99v-4.01z" fill="#ffce54"></path> <path d="m42 9.995 2 1.5-2 1.5-3-1.5z" fill="#ccd1d9"></path> <path d="m60.979 9.495c1.1 0 2 .89 2 2 0 1.1-.9 2-2 2h-9.01v-2-2z" fill="#ed5565"></path> <path d="m28.989 5.495h-27.989v-3h62v3h-28-6z" fill="#e6e9ed"></path> <path d="m29 5.495h6c-.011 1.649-1.351 2.99-3 3h-.011c-1.6 0-2.91-1.26-2.989-2.851z" fill="#ccd1d9"></path> <path d="m35 17.485h4c0 3.869-3.141 7-7 7-.011 0-.011 0-.021 0-3.86-.011-6.979-3.141-6.979-7h4 3z" fill="#656d78"></path> <path d="m62.999 3.494h-62c-.553 0-1-.447-1-1s.447-1 1-1h62c.553 0 1 .447 1 1s-.447 1-1 1z"></path> <path d="m62.999 6.494h-62c-.553 0-1-.447-1-1s.447-1 1-1h62c.553 0 1 .447 1 1s-.447 1-1 1z"></path> <path d="m32 18.5c-.553 0-1-.447-1-1v-9.006c0-.553.447-1 1-1s1 .447 1 1v9.006c0 .553-.447 1-1 1z"></path> <path d="m34.999 18.5c-.553 0-1-.447-1-1v-12.006c0-.553.447-1 1-1s1 .447 1 1v12.006c0 .553-.447 1-1 1z"></path> <path d="m29 18.5c-.553 0-1-.447-1-1v-12.006c0-.553.447-1 1-1s1 .447 1 1v12.006c0 .553-.447 1-1 1z"></path> <path d="m31.999 25.488c-4.411 0-8-3.589-8-8 0-.553.447-1 1-1s1 .447 1 1c0 3.309 2.691 6 6 6s6-2.691 6-6c0-.553.447-1 1-1s1 .447 1 1c0 4.411-3.589 8-8 8z"></path> <path d="m38.999 18.488h-14c-.553 0-1-.447-1-1s.447-1 1-1h14c.553 0 1 .447 1 1s-.447 1-1 1z"></path> <path d="m51.978 12.494h-7.977c-.553 0-1-.447-1-1s.447-1 1-1h7.977c.553 0 1 .447 1 1s-.448 1-1 1z"></path> <path d="m44 12.494c-.208 0-.418-.064-.598-.199l-2-1.496c-.442-.331-.533-.958-.202-1.399s.956-.535 1.399-.202l2 1.496c.442.331.533.958.202 1.399-.196.262-.496.401-.801.401z"></path> <path d="m42.002 13.998c-.304 0-.604-.138-.8-.399-.332-.441-.243-1.068.198-1.399l2-1.504c.441-.332 1.068-.243 1.399.198.332.441.243 1.068-.198 1.399l-2 1.504c-.179.136-.39.201-.599.201z"></path> <path d="m39.002 12.498c-.367 0-.72-.202-.896-.553-.247-.494-.047-1.095.447-1.342l3-1.5c.494-.246 1.094-.047 1.342.447.247.494.047 1.095-.447 1.342l-3 1.5c-.143.072-.296.106-.446.106z"></path> <path d="m42 13.998c-.15 0-.303-.034-.446-.105l-3-1.5c-.494-.247-.694-.848-.447-1.342s.848-.692 1.342-.447l3 1.5c.494.247.694.848.447 1.342-.176.35-.529.552-.896.552z"></path> <path d="m51.977 14.494c-.552 0-1-.447-1-1l-.001-4c0-.552.447-1 1-1 .552 0 1 .447 1 1l.001 4c0 .552-.448 1-1 1z"></path> <path d="m60.982 14.494c-.553 0-1-.447-1-1s.447-1 1-1c.552 0 1-.448 1-1s-.448-1-1-1c-.553 0-1-.447-1-1s.447-1 1-1c1.654 0 3 1.346 3 3s-1.345 3-3 3z"></path> <path d="m60.982 10.494h-9.007c-.553 0-1-.447-1-1s.447-1 1-1h9.007c.553 0 1 .447 1 1s-.447 1-1 1z"></path> <path d="m60.982 14.494h-9.006c-.553 0-1-.447-1-1s.447-1 1-1h9.006c.553 0 1 .447 1 1s-.447 1-1 1z"></path> <path d="m19 58.508c-7.72 0-14.001-6.28-14.001-14 0-.553.447-1 1-1s1 .447 1 1c0 6.617 5.384 12 12.001 12s12.001-5.383 12.001-12c0-.553.447-1 1-1s1 .447 1 1c0 7.72-6.281 14-14.001 14z"></path> <path d="m25.791 56.596c-.194 0-.391-.057-.563-.174-3.289-2.245-5.252-5.96-5.252-9.938 0-.553.447-1 1-1s1 .447 1 1c0 3.316 1.637 6.414 4.379 8.285.456.312.574.934.263 1.39-.194.284-.508.437-.827.437z"></path> <path d="m31.983 45.508c-.553 0-1-.447-1-1v-20.018c0-.553.447-1 1-1s1 .447 1 1v20.018c0 .553-.447 1-1 1z"></path> <path d="m5.998 45.502c-3.307 0-5.997-2.69-5.997-5.998 0-.553.447-1 1-1s1 .447 1 1c0 2.204 1.793 3.998 3.997 3.998s3.997-1.794 3.997-3.998c0-.553.447-1 1-1s1 .447 1 1c0 3.308-2.69 5.998-5.997 5.998z"></path> <path d="m10.999 40.504c-.553 0-1-.447-1-1v-4.004c0-.553.447-1 1-1s1 .447 1 1v4.004c0 .553-.447 1-1 1z"></path> <path d="m.999 40.504c-.553 0-1-.447-1-1v-4.004c0-.553.447-1 1-1s1 .447 1 1v4.004c0 .553-.447 1-1 1z"></path> <path d="m10.999 36.5h-10c-.553 0-1-.447-1-1s.447-1 1-1h10c.553 0 1 .447 1 1s-.447 1-1 1z"></path> <path d="m20.999 47.504c-2.756 0-4.997-2.242-4.997-4.998 0-.553.447-1 1-1s1 .447 1 1c0 1.653 1.345 2.998 2.997 2.998s2.997-1.345 2.997-2.998c0-.553.447-1 1-1s1 .447 1 1c0 2.756-2.241 4.998-4.997 4.998z"></path> <path d="m24.999 43.506c-.553 0-1-.447-1-1v-3.002c0-.553.447-1 1-1s1 .447 1 1v3.002c0 .553-.447 1-1 1z"></path> <path d="m17.001 43.506c-.553 0-1-.447-1-1v-3.002c0-.553.447-1 1-1s1 .447 1 1v3.002c0 .553-.447 1-1 1z"></path> <path d="m24.999 40.504h-7.998c-.553 0-1-.447-1-1s.447-1 1-1h7.998c.553 0 1 .447 1 1s-.447 1-1 1z"></path> <path d="m45 58.508c-7.72 0-14.001-6.28-14.001-14 0-.553.447-1 1-1s1 .447 1 1c0 6.617 5.384 12 12.001 12s12.001-5.383 12.001-12c0-.553.447-1 1-1s1 .447 1 1c0 7.72-6.281 14-14.001 14z"></path> <path d="m38.209 56.596c-.319 0-.633-.152-.827-.437-.312-.456-.193-1.078.263-1.39 2.742-1.871 4.379-4.969 4.379-8.285 0-.553.447-1 1-1s1 .447 1 1c0 3.978-1.963 7.692-5.252 9.938-.172.117-.369.174-.563.174z"></path> <path d="m58.002 45.502c-3.307 0-5.997-2.69-5.997-5.998 0-.553.447-1 1-1s1 .447 1 1c0 2.204 1.793 3.998 3.997 3.998s3.997-1.794 3.997-3.998c0-.553.447-1 1-1s1 .447 1 1c0 3.308-2.69 5.998-5.997 5.998z"></path> <path d="m53.001 40.504c-.553 0-1-.447-1-1v-4.004c0-.553.447-1 1-1s1 .447 1 1v4.004c0 .553-.447 1-1 1z"></path> <path d="m63.001 40.504c-.553 0-1-.447-1-1v-4.004c0-.553.447-1 1-1s1 .447 1 1v4.004c0 .553-.447 1-1 1z"></path> <path d="m63.001 36.5h-10c-.553 0-1-.447-1-1s.447-1 1-1h10c.553 0 1 .447 1 1s-.447 1-1 1z"></path> <path d="m43.001 47.504c-2.756 0-4.997-2.242-4.997-4.998 0-.553.447-1 1-1s1 .447 1 1c0 1.653 1.345 2.998 2.997 2.998s2.997-1.345 2.997-2.998c0-.553.447-1 1-1s1 .447 1 1c0 2.756-2.241 4.998-4.997 4.998z"></path> <path d="m39.001 43.506c-.553 0-1-.447-1-1v-3.002c0-.553.447-1 1-1s1 .447 1 1v3.002c0 .553-.447 1-1 1z"></path> <path d="m46.999 43.506c-.553 0-1-.447-1-1v-3.002c0-.553.447-1 1-1s1 .447 1 1v3.002c0 .553-.447 1-1 1z"></path> <path d="m46.999 40.504h-7.998c-.553 0-1-.447-1-1s.447-1 1-1h7.998c.553 0 1 .447 1 1s-.447 1-1 1z"></path> <path d="m45 58.508h-26c-.553 0-1-.447-1-1s.447-1 1-1h26c.553 0 1 .447 1 1s-.447 1-1 1z"></path> <path d="m31.999 62.506c-2.757 0-5-2.243-5-5 0-.553.447-1 1-1s1 .447 1 1c0 1.654 1.346 3 3 3s3-1.346 3-3c0-.553.447-1 1-1s1 .447 1 1c0 2.757-2.243 5-5 5z"></path> <path d="m31.997 9.494c-2.206 0-4.001-1.795-4.001-4.002 0-.553.447-1 1-1s1 .447 1 1c0 1.104.897 2.002 2.001 2.002s2.002-.898 2.002-2.002c0-.553.447-1 1-1s1 .447 1 1c0 2.207-1.795 4.002-4.002 4.002z"></path> </svg> 